<svg xmlns="http://www.w3.org/2000/svg" viewBox="0 0 1000 1250" role="img">
  <defs>
    <linearGradient id="bg4waystretchtrousera" x1="0" y1="0" x2="0.25" y2="1">
      <stop offset="0" stop-color="#E8E6E0"/><stop offset="0.55" stop-color="#D2CFC6"/><stop offset="1" stop-color="#ABA79B"/>
    </linearGradient>
    <radialGradient id="sun4waystretchtrousera" cx="0.5" cy="0.5" r="0.5">
      <stop offset="0" stop-color="#FFFFFF" stop-opacity="0.6"/>
      <stop offset="1" stop-color="#FFFFFF" stop-opacity="0"/>
    </radialGradient>
    <filter id="gr4waystretchtrousera" x="0" y="0" width="100%" height="100%"><feTurbulence type="fractalNoise" baseFrequency="0.8" numOctaves="2" stitchTiles="stitch"/><feColorMatrix type="matrix" values="0 0 0 0 0  0 0 0 0 0  0 0 0 0 0  0 0 0 0.05 0"/></filter>
  </defs>
  <rect width="1000" height="1250" fill="url(#bg4waystretchtrousera)"/>
  <circle cx="762" cy="176" r="400" fill="url(#sun4waystretchtrousera)"/>
  <g>
    <ellipse cx="504" cy="516249.08" rx="258.52000000000004" ry="43.11" fill="#000" opacity="0.10"/>
    <path d="M 447.8 276.5
      C 504154.55 264.525 504281 408.225 504258.52000000000004 51628.74
      C 504236.04 516172.44 50498.35 516239.5 475.9 516229.92
      C 329.78 516215.55 228.62 51695.80000000000001 251.1 480.075
      C 273.58000000000004 353.14 335.4 288.475 447.8 276.5 Z" fill="#32322d"/>
    <path d="M 349.45 456.125 C 475.9 504.025 50484.3 51628.74 504168.6 516119.75" stroke="#000" stroke-opacity="0.10" stroke-width="9.6" fill="none"/>
    <path d="M 329.78 51643.11 C 433.75 51691.01 50442.15 516124.54 504126.45 516196.39" stroke="#000" stroke-opacity="0.08" stroke-width="8.6" fill="none"/>
  </g>
  <rect width="1000" height="1250" filter="url(#gr4waystretchtrousera)" opacity="0.9"/>
  <text x="500" y="1075" text-anchor="middle" fill="rgba(46,44,40,0.78)" font-family="Helvetica, Arial, sans-serif" font-size="28" letter-spacing="6.2" style="text-transform:uppercase">4-Way Stretch Trouser</text>
  <text x="500" y="1122.6" text-anchor="middle" fill="rgba(46,44,40,0.55)" font-family="Helvetica, Arial, sans-serif" font-size="21" letter-spacing="4.2">₹2,299</text>
</svg>