<svg xmlns="http://www.w3.org/2000/svg" viewBox="0 0 1000 1250" role="img">
  <defs>
    <linearGradient id="bgcottonchinoshortb" x1="0" y1="0" x2="0.25" y2="1">
      <stop offset="0" stop-color="#E8E6E0"/><stop offset="0.55" stop-color="#D2CFC6"/><stop offset="1" stop-color="#ABA79B"/>
    </linearGradient>
    <radialGradient id="suncottonchinoshortb" cx="0.5" cy="0.5" r="0.5">
      <stop offset="0" stop-color="#FFFFFF" stop-opacity="0.6"/>
      <stop offset="1" stop-color="#FFFFFF" stop-opacity="0"/>
    </radialGradient>
    <filter id="grcottonchinoshortb" x="0" y="0" width="100%" height="100%"><feTurbulence type="fractalNoise" baseFrequency="0.8" numOctaves="2" stitchTiles="stitch"/><feColorMatrix type="matrix" values="0 0 0 0 0  0 0 0 0 0  0 0 0 0 0  0 0 0 0.05 0"/></filter>
  </defs>
  <rect width="1000" height="1250" fill="url(#bgcottonchinoshortb)"/>
  <circle cx="590" cy="585" r="649" fill="url(#suncottonchinoshortb)"/>
  <rect x="0" y="871" width="1000" height="379" fill="#ABA79B" opacity="0.5"/>
  <rect x="302" y="390" width="22" height="481" fill="#2E2C28" opacity="0.13"/>
  <rect x="224" y="171" width="39" height="699" fill="#2E2C28" opacity="0.14"/>
  <g fill="#2E2C28" opacity="0.92">
    <circle cx="543.0779263842851" cy="277.7" r="44.8"/>
    <path d="M 495.1 872.8
      L 485.5 680.8
      C 479.1 616.8 472.7 591.2 472.7 540.0
      C 472.7 476.1 459.9 450.5 453.5 412.1
      C 447.1 373.7 459.9 348.1 485.5 335.3
      C 511.1 322.5 575.1 322.5 600.7 335.3
      C 626.3 348.1 639.1 373.7 632.7 412.1
      C 626.3 450.5 613.5 476.1 613.5 540.0
      C 613.5 591.2 607.1 616.8 600.7 680.8
      L 591.1 872.8
      L 559.1 872.8
      L 555.9 732.0
      L 530.3 732.0
      L 527.1 872.8 Z"/>
    <ellipse cx="543.0779263842851" cy="891.9841320157284" rx="166.36967881186865" ry="25.595335201825947" fill="#000" opacity="0.14"/>
  </g>
  <rect width="1000" height="1250" filter="url(#grcottonchinoshortb)" opacity="0.9"/>
  <text x="60" y="1137.5" text-anchor="start" fill="rgba(46,44,40,0.7)" font-family="Helvetica, Arial, sans-serif" font-size="22" letter-spacing="4.8" style="text-transform:uppercase">COTTON CHINO SHORT</text>
  <text x="60" y="1206.25" fill="rgba(46,44,40,0.7)" font-family="Helvetica, Arial, sans-serif" font-size="13" letter-spacing="2.3">₹1,499</text>
</svg>