<svg xmlns="http://www.w3.org/2000/svg" viewBox="0 0 1000 1250" role="img">
  <defs>
    <linearGradient id="bgfestivetexturedshirtb" x1="0" y1="0" x2="0.25" y2="1">
      <stop offset="0" stop-color="#E8E6E0"/><stop offset="0.55" stop-color="#D2CFC6"/><stop offset="1" stop-color="#ABA79B"/>
    </linearGradient>
    <radialGradient id="sunfestivetexturedshirtb" cx="0.5" cy="0.5" r="0.5">
      <stop offset="0" stop-color="#FFFFFF" stop-opacity="0.6"/>
      <stop offset="1" stop-color="#FFFFFF" stop-opacity="0"/>
    </radialGradient>
    <filter id="grfestivetexturedshirtb" x="0" y="0" width="100%" height="100%"><feTurbulence type="fractalNoise" baseFrequency="0.8" numOctaves="2" stitchTiles="stitch"/><feColorMatrix type="matrix" values="0 0 0 0 0  0 0 0 0 0  0 0 0 0 0  0 0 0 0.05 0"/></filter>
  </defs>
  <rect width="1000" height="1250" fill="url(#bgfestivetexturedshirtb)"/>
  <circle cx="836" cy="484" r="672" fill="url(#sunfestivetexturedshirtb)"/>
  <rect x="0" y="836" width="1000" height="414" fill="#ABA79B" opacity="0.5"/>
  <rect x="325" y="250" width="24" height="586" fill="#2E2C28" opacity="0.08"/>
  <rect x="823" y="268" width="35" height="568" fill="#2E2C28" opacity="0.14"/>
  <g fill="#2E2C28" opacity="0.92">
    <circle cx="514.315076940693" cy="249.8" r="44.3"/>
    <path d="M 466.9 837.8
      L 457.4 648.1
      C 451.1 584.9 444.8 559.6 444.8 509.0
      C 444.8 445.8 432.1 420.5 425.8 382.6
      C 419.5 344.6 432.1 319.3 457.4 306.7
      C 482.7 294.1 545.9 294.1 571.2 306.7
      C 596.5 319.3 609.2 344.6 602.8 382.6
      C 596.5 420.5 583.9 445.8 583.9 509.0
      C 583.9 559.6 577.5 584.9 571.2 648.1
      L 561.7 837.8
      L 530.1 837.8
      L 527.0 698.7
      L 501.7 698.7
      L 498.5 837.8 Z"/>
    <ellipse cx="514.315076940693" cy="856.7673294069245" rx="164.38908881135285" ry="25.29062904790044" fill="#000" opacity="0.14"/>
  </g>
  <rect width="1000" height="1250" filter="url(#grfestivetexturedshirtb)" opacity="0.9"/>
  <text x="60" y="1137.5" text-anchor="start" fill="rgba(46,44,40,0.7)" font-family="Helvetica, Arial, sans-serif" font-size="22" letter-spacing="4.8" style="text-transform:uppercase">FESTIVE TEXTURED SHIRT</text>
  <text x="60" y="1206.25" fill="rgba(46,44,40,0.7)" font-family="Helvetica, Arial, sans-serif" font-size="13" letter-spacing="2.3">₹2,899</text>
</svg>