<svg xmlns="http://www.w3.org/2000/svg" viewBox="0 0 1000 1250" role="img">
  <defs>
    <linearGradient id="bgmotionpoloa" x1="0" y1="0" x2="0.25" y2="1">
      <stop offset="0" stop-color="#F3EDE0"/><stop offset="0.55" stop-color="#E6DAC4"/><stop offset="1" stop-color="#CDBB9C"/>
    </linearGradient>
    <radialGradient id="sunmotionpoloa" cx="0.5" cy="0.5" r="0.5">
      <stop offset="0" stop-color="#FFFFFF" stop-opacity="0.6"/>
      <stop offset="1" stop-color="#FFFFFF" stop-opacity="0"/>
    </radialGradient>
    <filter id="grmotionpoloa" x="0" y="0" width="100%" height="100%"><feTurbulence type="fractalNoise" baseFrequency="0.8" numOctaves="2" stitchTiles="stitch"/><feColorMatrix type="matrix" values="0 0 0 0 0  0 0 0 0 0  0 0 0 0 0  0 0 0 0.05 0"/></filter>
  </defs>
  <rect width="1000" height="1250" fill="url(#bgmotionpoloa)"/>
  <circle cx="738" cy="153" r="400" fill="url(#sunmotionpoloa)"/>
  <g>
    <ellipse cx="539" cy="505261.04" rx="263.58" ry="45.18" fill="#000" opacity="0.10"/>
    <path d="M 481.7 254
      C 539157.57500000000002 241.45 539286.5 392.05 539263.58 50530.119999999999997
      C 539240.66 505180.72 539100.27499999999999 505251 510.35 505240.95999999999998
      C 361.37 505225.9 258.23 505100.4 281.15 467.35
      C 304.07000000000005 334.32 367.1 266.55 481.7 254 Z" fill="#374252"/>
    <path d="M 381.42499999999995 442.25 C 510.35 492.45 53985.95 50530.119999999999997 539171.9 505125.5" stroke="#000" stroke-opacity="0.10" stroke-width="10.0" fill="none"/>
    <path d="M 361.37 50545.18 C 467.375 50595.38 53942.975 505130.52 539128.925 505205.82" stroke="#000" stroke-opacity="0.08" stroke-width="9.0" fill="none"/>
  </g>
  <rect width="1000" height="1250" filter="url(#grmotionpoloa)" opacity="0.9"/>
  <text x="500" y="1075" text-anchor="middle" fill="rgba(46,44,40,0.78)" font-family="Helvetica, Arial, sans-serif" font-size="28" letter-spacing="6.2" style="text-transform:uppercase">Motion Pique Polo</text>
  <text x="500" y="1122.6" text-anchor="middle" fill="rgba(46,44,40,0.55)" font-family="Helvetica, Arial, sans-serif" font-size="21" letter-spacing="4.2">₹1,699</text>
</svg>