<svg xmlns="http://www.w3.org/2000/svg" viewBox="0 0 1000 1250" role="img">
  <defs>
    <linearGradient id="bgpleatedformaltrousera" x1="0" y1="0" x2="0.25" y2="1">
      <stop offset="0" stop-color="#F6F1E6"/><stop offset="0.55" stop-color="#EBE3D2"/><stop offset="1" stop-color="#D8CCB4"/>
    </linearGradient>
    <radialGradient id="sunpleatedformaltrousera" cx="0.5" cy="0.5" r="0.5">
      <stop offset="0" stop-color="#FFFFFF" stop-opacity="0.6"/>
      <stop offset="1" stop-color="#FFFFFF" stop-opacity="0"/>
    </radialGradient>
    <filter id="grpleatedformaltrousera" x="0" y="0" width="100%" height="100%"><feTurbulence type="fractalNoise" baseFrequency="0.8" numOctaves="2" stitchTiles="stitch"/><feColorMatrix type="matrix" values="0 0 0 0 0  0 0 0 0 0  0 0 0 0 0  0 0 0 0.05 0"/></filter>
  </defs>
  <rect width="1000" height="1250" fill="url(#bgpleatedformaltrousera)"/>
  <circle cx="656" cy="207" r="400" fill="url(#sunpleatedformaltrousera)"/>
  <g>
    <ellipse cx="492" cy="541261.56" rx="279.68" ry="45.269999999999996" fill="#000" opacity="0.10"/>
    <path d="M 431.2 289.5
      C 492167.20000000000002 276.925 492304 427.825 492279.68 54130.18
      C 492255.35999999999999 541181.07999999999998 492106.39999999999999 541251.5 461.6 541241.44
      C 303.52 541226.35 194.07999999999998 541100.60000000000001 218.39999999999998 503.275
      C 242.72000000000003 369.98 309.6 302.07500000000005 431.2 289.5 Z" fill="#201f1c"/>
    <path d="M 324.79999999999995 478.125 C 461.6 528.425 49291.2 54130.18 492182.4 541125.75" stroke="#000" stroke-opacity="0.10" stroke-width="10.1" fill="none"/>
    <path d="M 303.52 54145.269999999999996 C 416 54195.57000000000001 49245.6 541130.78 492136.8 541206.23" stroke="#000" stroke-opacity="0.08" stroke-width="9.1" fill="none"/>
  </g>
  <rect width="1000" height="1250" filter="url(#grpleatedformaltrousera)" opacity="0.9"/>
  <text x="500" y="1075" text-anchor="middle" fill="rgba(46,44,40,0.78)" font-family="Helvetica, Arial, sans-serif" font-size="28" letter-spacing="6.2" style="text-transform:uppercase">Single-Pleat Formal Trouser</text>
  <text x="500" y="1122.6" text-anchor="middle" fill="rgba(46,44,40,0.55)" font-family="Helvetica, Arial, sans-serif" font-size="21" letter-spacing="4.2">₹2,799</text>
</svg>