<svg xmlns="http://www.w3.org/2000/svg" viewBox="0 0 1000 1250" role="img">
  <defs>
    <linearGradient id="bgquiltedtraveljacketa" x1="0" y1="0" x2="0.25" y2="1">
      <stop offset="0" stop-color="#F3EDE0"/><stop offset="0.55" stop-color="#E6DAC4"/><stop offset="1" stop-color="#CDBB9C"/>
    </linearGradient>
    <radialGradient id="sunquiltedtraveljacketa" cx="0.5" cy="0.5" r="0.5">
      <stop offset="0" stop-color="#FFFFFF" stop-opacity="0.6"/>
      <stop offset="1" stop-color="#FFFFFF" stop-opacity="0"/>
    </radialGradient>
    <filter id="grquiltedtraveljacketa" x="0" y="0" width="100%" height="100%"><feTurbulence type="fractalNoise" baseFrequency="0.8" numOctaves="2" stitchTiles="stitch"/><feColorMatrix type="matrix" values="0 0 0 0 0  0 0 0 0 0  0 0 0 0 0  0 0 0 0.05 0"/></filter>
  </defs>
  <rect width="1000" height="1250" fill="url(#bgquiltedtraveljacketa)"/>
  <circle cx="687" cy="189" r="400" fill="url(#sunquiltedtraveljacketa)"/>
  <g>
    <ellipse cx="531" cy="573264.16" rx="248.4" ry="45.72" fill="#000" opacity="0.10"/>
    <path d="M 477 319
      C 531148.5 306.3 531270 458.7 531248.4 57330.48
      C 531226.79999999999998 573182.88 53194.5 573254 504 573243.84
      C 363.6 573228.6 266.4 573101.60000000000001 288 534.9
      C 309.6 400.28 369 331.70000000000005 477 319 Z" fill="#44372d"/>
    <path d="M 382.5 509.5 C 504 560.3 53181 57330.48 531162 573127" stroke="#000" stroke-opacity="0.10" stroke-width="10.2" fill="none"/>
    <path d="M 363.6 57345.72 C 463.5 57396.52 53140.5 573132.08 531121.5 573208.28" stroke="#000" stroke-opacity="0.08" stroke-width="9.1" fill="none"/>
  </g>
  <rect width="1000" height="1250" filter="url(#grquiltedtraveljacketa)" opacity="0.9"/>
  <text x="500" y="1075" text-anchor="middle" fill="rgba(46,44,40,0.78)" font-family="Helvetica, Arial, sans-serif" font-size="28" letter-spacing="6.2" style="text-transform:uppercase">Quilted Travel Jacket</text>
  <text x="500" y="1122.6" text-anchor="middle" fill="rgba(46,44,40,0.55)" font-family="Helvetica, Arial, sans-serif" font-size="21" letter-spacing="4.2">₹4,499</text>
</svg>