<svg xmlns="http://www.w3.org/2000/svg" viewBox="0 0 1000 1250" role="img">
  <defs>
    <linearGradient id="bgrelaxedlinenshirtb" x1="0" y1="0" x2="0.25" y2="1">
      <stop offset="0" stop-color="#E9E6D6"/><stop offset="0.55" stop-color="#C7C9AD"/><stop offset="1" stop-color="#8F9478"/>
    </linearGradient>
    <radialGradient id="sunrelaxedlinenshirtb" cx="0.5" cy="0.5" r="0.5">
      <stop offset="0" stop-color="#FFFFFF" stop-opacity="0.6"/>
      <stop offset="1" stop-color="#FFFFFF" stop-opacity="0"/>
    </radialGradient>
    <filter id="grrelaxedlinenshirtb" x="0" y="0" width="100%" height="100%"><feTurbulence type="fractalNoise" baseFrequency="0.8" numOctaves="2" stitchTiles="stitch"/><feColorMatrix type="matrix" values="0 0 0 0 0  0 0 0 0 0  0 0 0 0 0  0 0 0 0.05 0"/></filter>
  </defs>
  <rect width="1000" height="1250" fill="url(#bgrelaxedlinenshirtb)"/>
  <circle cx="637" cy="662" r="563" fill="url(#sunrelaxedlinenshirtb)"/>
  <rect x="0" y="870" width="1000" height="380" fill="#8F9478" opacity="0.5"/>
  <rect x="59" y="233" width="18" height="637" fill="#272B20" opacity="0.07"/>
  <rect x="328" y="153" width="27" height="717" fill="#272B20" opacity="0.09"/>
  <g fill="#272B20" opacity="0.92">
    <circle cx="491.24044543132186" cy="230.0" r="48.3"/>
    <path d="M 439.4 872.2
      L 429.1 665.1
      C 422.2 596.0 415.3 568.4 415.3 513.1
      C 415.3 444.1 401.5 416.5 394.6 375.0
      C 387.7 333.6 401.5 306.0 429.1 292.2
      C 456.7 278.3 525.8 278.3 553.4 292.2
      C 581.0 306.0 594.8 333.6 587.9 375.0
      C 581.0 416.5 567.2 444.1 567.2 513.1
      C 567.2 568.4 560.3 596.0 553.4 665.1
      L 543.0 872.2
      L 508.5 872.2
      L 505.1 720.3
      L 477.4 720.3
      L 474.0 872.2 Z"/>
    <ellipse cx="491.24044543132186" cy="892.9604087935295" rx="179.55244645895436" ry="27.623453301377594" fill="#000" opacity="0.14"/>
  </g>
  <rect width="1000" height="1250" filter="url(#grrelaxedlinenshirtb)" opacity="0.9"/>
  <text x="60" y="1137.5" text-anchor="start" fill="rgba(42,44,34,0.75)" font-family="Helvetica, Arial, sans-serif" font-size="22" letter-spacing="4.8" style="text-transform:uppercase">RELAXED LINEN SHIRT</text>
  <text x="60" y="1206.25" fill="rgba(42,44,34,0.75)" font-family="Helvetica, Arial, sans-serif" font-size="13" letter-spacing="2.3">₹2,499</text>
</svg>