<svg xmlns="http://www.w3.org/2000/svg" viewBox="0 0 1100 1400" role="img">
  <defs>
    <linearGradient id="bgcatjeans" x1="0" y1="0" x2="0.25" y2="1">
      <stop offset="0" stop-color="#E8E6E0"/><stop offset="0.55" stop-color="#D2CFC6"/><stop offset="1" stop-color="#ABA79B"/>
    </linearGradient>
    <radialGradient id="suncatjeans" cx="0.5" cy="0.5" r="0.5">
      <stop offset="0" stop-color="#FFFFFF" stop-opacity="0.6"/>
      <stop offset="1" stop-color="#FFFFFF" stop-opacity="0"/>
    </radialGradient>
    <filter id="grcatjeans" x="0" y="0" width="100%" height="100%"><feTurbulence type="fractalNoise" baseFrequency="0.8" numOctaves="2" stitchTiles="stitch"/><feColorMatrix type="matrix" values="0 0 0 0 0  0 0 0 0 0  0 0 0 0 0  0 0 0 0.05 0"/></filter>
  </defs>
  <rect width="1100" height="1400" fill="url(#bgcatjeans)"/>
  <circle cx="791" cy="682" r="654" fill="url(#suncatjeans)"/>
  <rect x="0" y="977" width="1100" height="423" fill="#ABA79B" opacity="0.5"/>
  <g fill="#2E2C28" opacity="0.92">
    <circle cx="532.6300719985738" cy="263.8" r="53.8"/>
    <path d="M 475.0 978.7
      L 463.4 748.1
      C 455.8 671.2 448.1 640.5 448.1 579.0
      C 448.1 502.1 432.7 471.4 425.0 425.2
      C 417.3 379.1 432.7 348.4 463.4 333.0
      C 494.2 317.6 571.1 317.6 601.8 333.0
      C 632.6 348.4 647.9 379.1 640.2 425.2
      C 632.6 471.4 617.2 502.1 617.2 579.0
      C 617.2 640.5 609.5 671.2 601.8 748.1
      L 590.3 978.7
      L 551.8 978.7
      L 548.0 809.6
      L 517.3 809.6
      L 513.4 978.7 Z"/>
    <ellipse cx="532.6300719985738" cy="1001.7648319227807" rx="199.85924510139972" ry="30.74757616944611" fill="#000" opacity="0.14"/>
  </g>
  <rect width="1100" height="1400" filter="url(#grcatjeans)" opacity="0.9"/>
  <text x="66" y="1274" text-anchor="start" fill="rgba(46,44,40,0.7)" font-family="Helvetica, Arial, sans-serif" font-size="24" letter-spacing="5.3" style="text-transform:uppercase">JEANS</text>
  <text x="66" y="1351" fill="rgba(46,44,40,0.7)" font-family="Helvetica, Arial, sans-serif" font-size="14" letter-spacing="2.5">THE ESSENTIAL WARDROBE</text>
</svg>