<svg xmlns="http://www.w3.org/2000/svg" viewBox="0 0 1200 1500" role="img">
  <defs>
    <linearGradient id="bgoccevening" x1="0" y1="0" x2="0.25" y2="1">
      <stop offset="0" stop-color="#39424F"/><stop offset="0.55" stop-color="#2A323D"/><stop offset="1" stop-color="#1A2029"/>
    </linearGradient>
    <radialGradient id="sunoccevening" cx="0.5" cy="0.5" r="0.5">
      <stop offset="0" stop-color="#FFFFFF" stop-opacity="0.28"/>
      <stop offset="1" stop-color="#FFFFFF" stop-opacity="0"/>
    </radialGradient>
    <filter id="groccevening" x="0" y="0" width="100%" height="100%"><feTurbulence type="fractalNoise" baseFrequency="0.8" numOctaves="2" stitchTiles="stitch"/><feColorMatrix type="matrix" values="0 0 0 0 0  0 0 0 0 0  0 0 0 0 0  0 0 0 0.05 0"/></filter>
  </defs>
  <rect width="1200" height="1500" fill="url(#bgoccevening)"/>
  <circle cx="810" cy="567" r="711" fill="url(#sunoccevening)"/>
  <rect x="0" y="943" width="1200" height="557" fill="#1A2029" opacity="0.5"/>
  <rect x="644" y="264" width="51" height="679" fill="#12161C" opacity="0.06"/>
  <rect x="158" y="201" width="24" height="741" fill="#12161C" opacity="0.08"/>
  <rect x="898" y="439" width="45" height="503" fill="#12161C" opacity="0.13"/>
  <rect x="144" y="391" width="47" height="551" fill="#12161C" opacity="0.07"/>
  <g fill="#12161C" opacity="0.92">
    <circle cx="614.7217101976275" cy="85.1" r="64.7"/>
    <path d="M 545.4 944.7
      L 531.5 667.4
      C 522.3 575.0 513.0 538.0 513.0 464.0
      C 513.0 371.6 494.6 334.6 485.3 279.2
      C 476.1 223.7 494.6 186.7 531.5 168.3
      C 568.5 149.8 660.9 149.8 697.9 168.3
      C 734.9 186.7 753.4 223.7 744.1 279.2
      C 734.9 334.6 716.4 371.6 716.4 464.0
      C 716.4 538.0 707.2 575.0 697.9 667.4
      L 684.0 944.7
      L 637.8 944.7
      L 633.2 741.3
      L 596.2 741.3
      L 591.6 944.7 Z"/>
    <ellipse cx="614.7217101976275" cy="972.4237513219006" rx="240.32427636589856" ry="36.972965594753624" fill="#000" opacity="0.14"/>
  </g>
  <rect width="1200" height="1500" filter="url(#groccevening)" opacity="0.9"/>
  <text x="72" y="1365" text-anchor="start" fill="rgba(233,228,216,0.8)" font-family="Helvetica, Arial, sans-serif" font-size="26" letter-spacing="5.7" style="text-transform:uppercase">EVENING</text>
  <text x="72" y="1447.5" fill="rgba(233,228,216,0.8)" font-family="Helvetica, Arial, sans-serif" font-size="16" letter-spacing="2.9">DRESSED FOR DINNER</text>
</svg>